<svg xmlns="http://www.w3.org/2000/svg" width="16.295" height="16.3" viewBox="0 0 16.295 16.3">
  <path id="edit-alt" d="M4.4,14.8H7.79a.8.8,0,0,0,.568-.232l5.534-5.542h0L16.164,6.8a.8.8,0,0,0,0-1.136L12.773,2.231a.8.8,0,0,0-1.136,0L9.382,4.494h0l-5.55,5.542A.8.8,0,0,0,3.6,10.6V14A.8.8,0,0,0,4.4,14.8ZM12.205,3.926,14.468,6.19,13.333,7.325,11.069,5.062ZM5.2,10.932,9.942,6.19l2.263,2.263L7.462,13.2H5.2Zm12,5.462H2.8a.8.8,0,0,0,0,1.6H17.2a.8.8,0,0,0,0-1.6Z" transform="translate(-1.85 -1.844)" fill="#2e2e2e" stroke="#2e2e2e" stroke-width="0.3"/>
</svg>
